<svg width="15" height="20" viewBox="0 0 15 20" fill="none" xmlns="http://www.w3.org/2000/svg">
<path d="M7.5 0.5C3.35813 0.5 0 4.04628 0 8.42102C0 11.4935 3.71438 16.2248 5.92625 18.7694C6.775 19.7459 8.28438 19.7434 9.12875 18.7625C11.3225 16.216 15 11.4904 15 8.42102C15 4.04628 11.6419 0.5 7.5 0.5ZM7.53125 12.3308C5.43188 12.3308 3.68062 10.8295 3.27562 8.8343H4.94125C5.30625 9.92357 6.3275 10.7079 7.53062 10.7079C8.73375 10.7079 9.75562 9.92357 10.12 8.8343H11.7856C11.3806 10.8295 9.62938 12.3308 7.53 12.3308H7.53125ZM10.1206 7.07029C9.75562 5.98102 8.73438 5.19667 7.53125 5.19667C6.32812 5.19667 5.30625 5.98102 4.94187 7.07029H3.27625C3.68125 5.07507 5.4325 3.57378 7.53188 3.57378C9.63125 3.57378 11.3825 5.07507 11.7875 7.07029H10.1219H10.1206Z" fill="#465785"/>
</svg>
